<mxfile host="app.diagrams.net" agent="Mozilla/5.0 (Windows NT 10.0; Win64; x64) AppleWebKit/537.36 (KHTML, like Gecko) Chrome/131.0.0.0 Safari/537.36" version="24.9.1">
  <diagram name="Seite-1" id="5SiG2aX4VQQCV-IAW3pS">
    <mxGraphModel dx="1257" dy="782" grid="1" gridSize="10" guides="1" tooltips="1" connect="1" arrows="1" fold="1" page="1" pageScale="1" pageWidth="827" pageHeight="1169" math="0" shadow="0">
      <root>
        <mxCell id="0" />
        <mxCell id="1" parent="0" />
        <mxCell id="xTAZMhIz0_m4H_iPqNoI-1" value="" style="sketch=0;points=[[0,0,0],[0.25,0,0],[0.5,0,0],[0.75,0,0],[1,0,0],[0,1,0],[0.25,1,0],[0.5,1,0],[0.75,1,0],[1,1,0],[0,0.25,0],[0,0.5,0],[0,0.75,0],[1,0.25,0],[1,0.5,0],[1,0.75,0]];outlineConnect=0;fontColor=#232F3E;fillColor=#7AA116;strokeColor=#ffffff;dashed=0;verticalLabelPosition=bottom;verticalAlign=top;align=center;html=1;fontSize=12;fontStyle=0;aspect=fixed;shape=mxgraph.aws4.resourceIcon;resIcon=mxgraph.aws4.s3;" parent="1" vertex="1">
          <mxGeometry x="40" y="40" width="170" height="170" as="geometry" />
        </mxCell>
        <mxCell id="xTAZMhIz0_m4H_iPqNoI-2" value="" style="edgeStyle=elbowEdgeStyle;html=1;endArrow=block;dashed=0;elbow=vertical;endFill=1;rounded=0;strokeColor=#707070;" parent="1" source="xTAZMhIz0_m4H_iPqNoI-1" edge="1">
          <mxGeometry width="160" relative="1" as="geometry">
            <mxPoint x="260" y="130" as="sourcePoint" />
            <mxPoint x="420" y="130" as="targetPoint" />
          </mxGeometry>
        </mxCell>
        <mxCell id="xTAZMhIz0_m4H_iPqNoI-3" value="" style="sketch=0;outlineConnect=0;fontColor=#232F3E;gradientColor=none;fillColor=#7AA116;strokeColor=none;dashed=0;verticalLabelPosition=bottom;verticalAlign=top;align=center;html=1;fontSize=12;fontStyle=0;aspect=fixed;pointerEvents=1;shape=mxgraph.aws4.s3_object_lambda;" parent="1" vertex="1">
          <mxGeometry x="310" y="80" width="27.18" height="40" as="geometry" />
        </mxCell>
        <mxCell id="xTAZMhIz0_m4H_iPqNoI-4" value="" style="outlineConnect=0;dashed=0;verticalLabelPosition=bottom;verticalAlign=top;align=center;html=1;shape=mxgraph.aws3.lambda_function;fillColor=#F58534;gradientColor=none;" parent="1" vertex="1">
          <mxGeometry x="450" y="60" width="160.71" height="150" as="geometry" />
        </mxCell>
        <mxCell id="xTAZMhIz0_m4H_iPqNoI-5" value="" style="shape=flexArrow;endArrow=classic;html=1;rounded=0;strokeColor=#707070;align=center;verticalAlign=middle;fontFamily=Helvetica;fontSize=11;fontColor=default;labelBackgroundColor=default;" parent="1" edge="1">
          <mxGeometry width="50" height="50" relative="1" as="geometry">
            <mxPoint x="440" y="201" as="sourcePoint" />
            <mxPoint x="210" y="201" as="targetPoint" />
          </mxGeometry>
        </mxCell>
        <mxCell id="xTAZMhIz0_m4H_iPqNoI-6" value="" style="shape=flexArrow;endArrow=classic;html=1;rounded=0;strokeColor=#707070;align=center;verticalAlign=middle;fontFamily=Helvetica;fontSize=11;fontColor=default;labelBackgroundColor=default;" parent="1" edge="1">
          <mxGeometry width="50" height="50" relative="1" as="geometry">
            <mxPoint x="210" y="160" as="sourcePoint" />
            <mxPoint x="440" y="160" as="targetPoint" />
          </mxGeometry>
        </mxCell>
        <mxCell id="xTAZMhIz0_m4H_iPqNoI-7" value="" style="outlineConnect=0;dashed=0;verticalLabelPosition=bottom;verticalAlign=top;align=center;html=1;shape=mxgraph.aws3.kms;fillColor=#759C3E;gradientColor=none;" parent="1" vertex="1">
          <mxGeometry x="840" y="50" width="139.84" height="170" as="geometry" />
        </mxCell>
        <mxCell id="xTAZMhIz0_m4H_iPqNoI-8" value="" style="shape=flexArrow;endArrow=classic;html=1;rounded=0;strokeColor=#707070;align=center;verticalAlign=middle;fontFamily=Helvetica;fontSize=11;fontColor=default;labelBackgroundColor=default;" parent="1" edge="1">
          <mxGeometry width="50" height="50" relative="1" as="geometry">
            <mxPoint x="840.71" y="190" as="sourcePoint" />
            <mxPoint x="610.71" y="190" as="targetPoint" />
          </mxGeometry>
        </mxCell>
        <mxCell id="xTAZMhIz0_m4H_iPqNoI-9" value="" style="shape=flexArrow;endArrow=classic;html=1;rounded=0;strokeColor=#707070;align=center;verticalAlign=middle;fontFamily=Helvetica;fontSize=11;fontColor=default;labelBackgroundColor=default;" parent="1" edge="1">
          <mxGeometry width="50" height="50" relative="1" as="geometry">
            <mxPoint x="610.71" y="150" as="sourcePoint" />
            <mxPoint x="840.71" y="150" as="targetPoint" />
          </mxGeometry>
        </mxCell>
        <mxCell id="xTAZMhIz0_m4H_iPqNoI-10" value="" style="image;aspect=fixed;perimeter=ellipsePerimeter;html=1;align=center;shadow=0;dashed=0;spacingTop=3;image=img/lib/active_directory/key.svg;" parent="1" vertex="1">
          <mxGeometry x="880" y="80" width="67.57" height="50" as="geometry" />
        </mxCell>
        <mxCell id="xTAZMhIz0_m4H_iPqNoI-13" value="" style="sketch=0;pointerEvents=1;shadow=0;dashed=0;html=1;strokeColor=none;labelPosition=center;verticalLabelPosition=bottom;verticalAlign=top;outlineConnect=0;align=center;shape=mxgraph.office.concepts.folder;fillColor=#7FBA42;" parent="1" vertex="1">
          <mxGeometry x="298" y="190" width="22.22" height="20" as="geometry" />
        </mxCell>
        <mxCell id="xTAZMhIz0_m4H_iPqNoI-14" value="" style="sketch=0;pointerEvents=1;shadow=0;dashed=0;html=1;strokeColor=none;labelPosition=center;verticalLabelPosition=bottom;verticalAlign=top;outlineConnect=0;align=center;shape=mxgraph.office.concepts.folder;fillColor=#7FBA42;" parent="1" vertex="1">
          <mxGeometry x="331" y="150" width="22.22" height="20" as="geometry" />
        </mxCell>
        <mxCell id="xTAZMhIz0_m4H_iPqNoI-15" value="1" style="rounded=1;fillColor=#0065FF;strokeColor=none;html=1;fontColor=#ffffff;align=center;verticalAlign=middle;whiteSpace=wrap;fontSize=18;fontStyle=1;arcSize=50;sketch=0;" parent="1" vertex="1">
          <mxGeometry x="270" y="70" width="40" height="25" as="geometry" />
        </mxCell>
        <mxCell id="xTAZMhIz0_m4H_iPqNoI-16" value="2" style="rounded=1;fillColor=#0065FF;strokeColor=none;html=1;fontColor=#ffffff;align=center;verticalAlign=middle;whiteSpace=wrap;fontSize=18;fontStyle=1;arcSize=50;sketch=0;" parent="1" vertex="1">
          <mxGeometry x="360" y="147" width="40" height="25" as="geometry" />
        </mxCell>
        <mxCell id="xTAZMhIz0_m4H_iPqNoI-19" value="5" style="rounded=1;fillColor=#0065FF;strokeColor=none;html=1;fontColor=#ffffff;align=center;verticalAlign=middle;whiteSpace=wrap;fontSize=18;fontStyle=1;arcSize=50;sketch=0;" parent="1" vertex="1">
          <mxGeometry x="247" y="190" width="40" height="25" as="geometry" />
        </mxCell>
        <mxCell id="xTAZMhIz0_m4H_iPqNoI-21" value="S3 Bucket" style="text;html=1;align=center;verticalAlign=middle;resizable=0;points=[];autosize=1;strokeColor=none;fillColor=none;" parent="1" vertex="1">
          <mxGeometry x="40" y="208" width="80" height="30" as="geometry" />
        </mxCell>
        <mxCell id="xTAZMhIz0_m4H_iPqNoI-22" value="KMS-Store" style="text;html=1;align=center;verticalAlign=middle;resizable=0;points=[];autosize=1;strokeColor=none;fillColor=none;" parent="1" vertex="1">
          <mxGeometry x="840" y="220" width="80" height="30" as="geometry" />
        </mxCell>
        <mxCell id="xTAZMhIz0_m4H_iPqNoI-23" value="C2PA-Signing Lambda Function" style="text;html=1;align=center;verticalAlign=middle;resizable=0;points=[];autosize=1;strokeColor=#707070;fillColor=none;" parent="1" vertex="1">
          <mxGeometry x="436.36" y="210" width="190" height="30" as="geometry" />
        </mxCell>
        <mxCell id="xTAZMhIz0_m4H_iPqNoI-24" value="3" style="rounded=1;fillColor=#0065FF;strokeColor=none;html=1;fontColor=#ffffff;align=center;verticalAlign=middle;whiteSpace=wrap;fontSize=18;fontStyle=1;arcSize=50;sketch=0;" parent="1" vertex="1">
          <mxGeometry x="760" y="138.5" width="40" height="25" as="geometry" />
        </mxCell>
        <mxCell id="xTAZMhIz0_m4H_iPqNoI-25" value="4" style="rounded=1;fillColor=#0065FF;strokeColor=none;html=1;fontColor=#ffffff;align=center;verticalAlign=middle;whiteSpace=wrap;fontSize=18;fontStyle=1;arcSize=50;sketch=0;" parent="1" vertex="1">
          <mxGeometry x="648" y="177.5" width="40" height="25" as="geometry" />
        </mxCell>
      </root>
    </mxGraphModel>
  </diagram>
</mxfile>
